<svg width="175" height="64" viewBox="0 0 175 64" fill="none" xmlns="http://www.w3.org/2000/svg">
<path d="M76.3006 52.4984H79.1176C80.9404 52.4984 82.0472 51.5798 82.0472 50.0842C82.0472 48.9595 81.2364 48.1292 80.0764 48.0173V47.9702C80.9523 47.8289 81.6329 47.034 81.6329 46.1213C81.6329 44.8317 80.6327 44.0015 79.0821 44.0015H76.3006C75.8271 44.0015 75.5371 44.2959 75.5371 44.7905V51.7093C75.5371 52.204 75.8271 52.4984 76.3006 52.4984ZM77.064 47.5816V45.185H78.6974C79.6088 45.185 80.1237 45.6031 80.1237 46.345C80.1237 47.1341 79.526 47.5816 78.4607 47.5816H77.064ZM77.064 51.3148V48.6592H78.7034C79.8752 48.6592 80.4907 49.1126 80.4907 49.9782C80.4907 50.8496 79.8929 51.3148 78.7685 51.3148H77.064Z" fill="black"/>
<path d="M88.8273 52.6397C90.9934 52.6397 92.3368 51.356 92.3368 49.5012V44.6904C92.3368 44.1899 92.0527 43.9014 91.5793 43.9014C91.0999 43.9014 90.8158 44.1899 90.8158 44.6904V49.3658C90.8158 50.5258 90.0938 51.3148 88.8273 51.3148C87.5608 51.3148 86.8447 50.5258 86.8447 49.3658V44.6904C86.8447 44.1899 86.5606 43.9014 86.0813 43.9014C85.6078 43.9014 85.3178 44.1899 85.3178 44.6904V49.5012C85.3178 51.356 86.6672 52.6397 88.8273 52.6397Z" fill="black"/>
<path d="M96.797 52.5985C97.2764 52.5985 97.5605 52.31 97.5605 51.8094V44.6904C97.5605 44.1899 97.2764 43.9014 96.797 43.9014C96.3236 43.9014 96.0336 44.1899 96.0336 44.6904V51.8094C96.0336 52.31 96.3236 52.5985 96.797 52.5985Z" fill="black"/>
<path d="M102.009 52.4984H106.045C106.465 52.4984 106.743 52.2511 106.743 51.8565C106.743 51.462 106.459 51.2147 106.045 51.2147H102.772V44.6904C102.772 44.1899 102.488 43.9014 102.009 43.9014C101.535 43.9014 101.245 44.1899 101.245 44.6904V51.7093C101.245 52.204 101.535 52.4984 102.009 52.4984Z" fill="black"/>
<path d="M111.6 52.5985C112.08 52.5985 112.364 52.31 112.364 51.8094V45.2851H114.317C114.731 45.2851 115.015 45.0378 115.015 44.6433C115.015 44.2488 114.737 44.0015 114.317 44.0015H108.89C108.469 44.0015 108.191 44.2488 108.191 44.6433C108.191 45.0378 108.475 45.2851 108.89 45.2851H110.843V51.8094C110.843 52.31 111.127 52.5985 111.6 52.5985Z" fill="black"/>
<path d="M123.515 52.4984H126.332C128.155 52.4984 129.262 51.5798 129.262 50.0842C129.262 48.9595 128.451 48.1292 127.291 48.0173V47.9702C128.167 47.8289 128.848 47.034 128.848 46.1213C128.848 44.8317 127.847 44.0015 126.297 44.0015H123.515C123.042 44.0015 122.752 44.2959 122.752 44.7905V51.7093C122.752 52.204 123.042 52.4984 123.515 52.4984ZM124.279 47.5816V45.185H125.912C126.823 45.185 127.338 45.6031 127.338 46.345C127.338 47.1341 126.741 47.5816 125.675 47.5816H124.279ZM124.279 51.3148V48.6592H125.918C127.09 48.6592 127.705 49.1126 127.705 49.9782C127.705 50.8496 127.108 51.3148 125.983 51.3148H124.279Z" fill="black"/>
<path d="M135.574 52.5985C136.054 52.5985 136.338 52.31 136.338 51.8094V49.1479L139.001 45.1026C139.114 44.9259 139.161 44.767 139.161 44.5903C139.161 44.1958 138.835 43.9014 138.409 43.9014C138.107 43.9014 137.918 44.025 137.729 44.343L135.604 47.6994H135.569L133.45 44.343C133.254 44.0132 133.071 43.9014 132.751 43.9014C132.319 43.9014 131.994 44.1958 131.994 44.5962C131.994 44.767 132.041 44.9318 132.148 45.1026L134.817 49.1479V51.8094C134.817 52.31 135.101 52.5985 135.574 52.5985Z" fill="black"/>
<g clip-path="url(#clip0_305_3658)">
<path d="M159.114 63.9671L143.562 48.2523L159.114 32.542L174.67 48.2523L159.114 63.9671Z" fill="url(#paint0_linear_305_3658)"/>
<path d="M159.114 63.9671L143.562 48.2523L159.114 32.542L174.67 48.2523L159.114 63.9671Z" fill="url(#paint1_linear_305_3658)"/>
<path d="M165.019 49.8442L159.111 63.9671L174.667 48.2523L170.625 44.1729L165.019 49.8442Z" fill="url(#paint2_linear_305_3658)"/>
<path d="M165.019 49.8442L159.111 63.9671L174.667 48.2523L170.625 44.1729L165.019 49.8442Z" fill="url(#paint3_linear_305_3658)"/>
<path opacity="0.4" d="M165.019 49.8442L159.111 63.9671L174.667 48.2523L170.625 44.1729L165.019 49.8442Z" fill="url(#paint4_linear_305_3658)"/>
</g>
<path d="M53.2715 34.0756C52.89 34.1445 52.3179 34.2305 51.5551 34.3338C50.827 34.4714 50.0815 34.5403 49.3187 34.5403C48.5558 34.5403 47.8624 34.4887 47.2382 34.3854C46.6488 34.2821 46.146 34.0756 45.7299 33.7658C45.3139 33.4561 44.9845 33.043 44.7417 32.5267C44.5337 31.976 44.4297 31.2704 44.4297 30.4099V0.464668C44.8111 0.395827 45.3659 0.309777 46.094 0.206519C46.8568 0.0688398 47.6197 0 48.3825 0C49.1453 0 49.8214 0.0516291 50.4109 0.154887C51.035 0.258147 51.5551 0.464667 51.9712 0.774445C52.3873 1.08422 52.6993 1.51447 52.9074 2.06519C53.1501 2.58149 53.2715 3.26988 53.2715 4.13038V34.0756Z" fill="black"/>
<path d="M83.4517 21.5812C83.4517 23.7153 83.1223 25.6256 82.4635 27.3121C81.8047 28.9643 80.8685 30.3583 79.6549 31.4941C78.476 32.63 77.0544 33.4905 75.3901 34.0756C73.7258 34.6608 71.8707 34.9533 69.825 34.9533C67.7792 34.9533 65.9242 34.6435 64.2599 34.024C62.5955 33.4044 61.1566 32.5267 59.943 31.3909C58.7641 30.2206 57.8453 28.8094 57.1865 27.1572C56.5277 25.5051 56.1983 23.6464 56.1983 21.5812C56.1983 19.5505 56.5277 17.709 57.1865 16.0568C57.8453 14.4047 58.7641 13.0107 59.943 11.8748C61.1566 10.7046 62.5955 9.80965 64.2599 9.19009C65.9242 8.57053 67.7792 8.26075 69.825 8.26075C71.8707 8.26075 73.7258 8.58774 75.3901 9.24172C77.0544 9.86128 78.476 10.7562 79.6549 11.9265C80.8685 13.0623 81.8047 14.4563 82.4635 16.1085C83.1223 17.7606 83.4517 19.5849 83.4517 21.5812ZM65.2481 21.5812C65.2481 23.6808 65.6468 25.2986 66.4443 26.4344C67.2765 27.5359 68.4207 28.0866 69.877 28.0866C71.3333 28.0866 72.4428 27.5186 73.2057 26.3828C74.0031 25.2469 74.4019 23.6464 74.4019 21.5812C74.4019 19.516 74.0031 17.9327 73.2057 16.8313C72.4082 15.6954 71.2813 15.1275 69.825 15.1275C68.3687 15.1275 67.2418 15.6954 66.4443 16.8313C65.6468 17.9327 65.2481 19.516 65.2481 21.5812Z" fill="black"/>
<path d="M98.4037 28.5512C98.9931 28.5512 99.6346 28.4996 100.328 28.3963C101.056 28.2587 101.594 28.0866 101.94 27.88V23.7497L98.1957 24.0595C97.2248 24.1283 96.4273 24.3348 95.8032 24.679C95.1791 25.0232 94.867 25.5395 94.867 26.2279C94.867 26.9163 95.127 27.4842 95.6471 27.9317C96.2019 28.3447 97.1208 28.5512 98.4037 28.5512ZM97.9876 8.26075C99.86 8.26075 101.559 8.45006 103.085 8.82868C104.645 9.2073 105.963 9.79244 107.037 10.5841C108.147 11.3413 108.996 12.3223 109.586 13.527C110.175 14.6973 110.47 16.0913 110.47 17.709V29.2741C110.47 30.169 110.21 30.909 109.69 31.4941C109.205 32.0448 108.615 32.5267 107.922 32.9398C105.668 34.2821 102.495 34.9533 98.4037 34.9533C96.566 34.9533 94.9017 34.7812 93.4107 34.437C91.9544 34.0928 90.6888 33.5765 89.6139 32.8881C88.5737 32.1997 87.7589 31.322 87.1694 30.255C86.6147 29.188 86.3373 27.9489 86.3373 26.5377C86.3373 24.1627 87.0481 22.3385 88.4697 21.0649C89.8913 19.7914 92.0931 18.9997 95.075 18.69L101.888 17.9671V17.6057C101.888 16.6076 101.438 15.902 100.536 15.4889C99.6693 15.0415 98.4037 14.8177 96.7394 14.8177C95.4218 14.8177 94.1388 14.9554 92.8906 15.2308C91.6423 15.5061 90.5154 15.8503 89.5099 16.2634C89.0592 15.9536 88.6777 15.4889 88.3657 14.8694C88.0536 14.2154 87.8976 13.5442 87.8976 12.8558C87.8976 11.9609 88.1056 11.2553 88.5217 10.739C88.9725 10.1883 89.6486 9.7236 90.5501 9.34498C91.5557 8.96636 92.7346 8.691 94.0868 8.5189C95.4738 8.3468 96.774 8.26075 97.9876 8.26075Z" fill="black"/>
<path d="M130.335 18.2253C130.335 17.1583 130.023 16.3838 129.399 15.902C128.81 15.3857 127.995 15.1275 126.955 15.1275C126.261 15.1275 125.568 15.2136 124.874 15.3857C124.215 15.5578 123.643 15.8159 123.158 16.1601V34.0756C122.811 34.1789 122.256 34.2821 121.493 34.3854C120.765 34.4887 120.002 34.5403 119.205 34.5403C118.442 34.5403 117.749 34.4887 117.125 34.3854C116.535 34.2821 116.032 34.0756 115.616 33.7658C115.2 33.4561 114.871 33.043 114.628 32.5267C114.42 31.976 114.316 31.2704 114.316 30.4099V14.921C114.316 13.9917 114.507 13.2344 114.888 12.6493C115.304 12.0641 115.859 11.5306 116.552 11.0488C117.731 10.2227 119.205 9.5515 120.973 9.0352C122.776 8.5189 124.77 8.26075 126.955 8.26075C130.873 8.26075 133.889 9.12125 136.004 10.8422C138.119 12.5288 139.177 14.8866 139.177 17.9155V34.0756C138.83 34.1789 138.275 34.2821 137.513 34.3854C136.785 34.4887 136.022 34.5403 135.224 34.5403C134.461 34.5403 133.768 34.4887 133.144 34.3854C132.554 34.2821 132.052 34.0756 131.635 33.7658C131.219 33.4561 130.89 33.043 130.647 32.5267C130.439 31.976 130.335 31.2704 130.335 30.4099V18.2253Z" fill="black"/>
<path d="M28.2108 15.0883C28.2742 15.0883 28.3376 15.0891 28.401 15.0905C28.4644 15.0891 28.5278 15.0883 28.5912 15.0883C29.6318 15.0883 30.4469 15.3473 31.0365 15.8651C31.6608 16.3484 31.973 17.1252 31.973 18.1953V30.4162C31.973 31.2793 32.077 31.987 32.2851 32.5393C32.5279 33.0571 32.8574 33.4714 33.2736 33.7821C33.6899 34.0928 34.1928 34.2999 34.7824 34.4035C35.4067 34.5071 36.1004 34.5589 36.8635 34.5589C37.6612 34.5589 38.4243 34.5071 39.1527 34.4035C39.9157 34.2999 40.4707 34.1964 40.8175 34.0928V17.8846C40.8175 14.8467 39.7596 12.4819 37.6439 10.7903C35.5281 9.06423 32.5106 8.20117 28.5912 8.20117C28.5277 8.20117 28.4643 8.20139 28.401 8.20183C28.3378 8.20139 28.2744 8.20117 28.2108 8.20117C24.2915 8.20117 21.274 9.06423 19.1582 10.7903C17.0424 12.4819 15.9846 14.8467 15.9846 17.8846V25.6038C16.3314 25.7073 16.8864 25.8109 17.6494 25.9145C18.3778 26.018 19.1409 26.0698 19.9386 26.0698C20.7017 26.0698 21.3953 26.018 22.0197 25.9145C22.6093 25.8109 23.1122 25.6038 23.5284 25.2931C23.9447 24.9824 24.2742 24.5681 24.5169 24.0503C24.7251 23.4979 24.8291 22.7902 24.8291 21.9271V18.1953C24.8291 17.1252 25.1413 16.3484 25.7656 15.8651C26.3552 15.3473 27.1703 15.0883 28.2108 15.0883Z" fill="black"/>
<path d="M12.6067 27.6717C12.5433 27.6717 12.4799 27.671 12.4165 27.6695C12.3531 27.671 12.2897 27.6717 12.2263 27.6717C11.1857 27.6717 10.3707 27.4128 9.78102 26.895C9.1567 26.4116 8.84454 25.6349 8.84454 24.5647V12.3439C8.84454 11.4808 8.74049 10.7731 8.53238 10.2207C8.28959 9.7029 7.96009 9.28864 7.54387 8.97794C7.12766 8.66724 6.62474 8.46011 6.0351 8.35654C5.41078 8.25297 4.71709 8.20119 3.95403 8.20119C3.15629 8.20119 2.39323 8.25297 1.66486 8.35654C0.901798 8.46011 0.346846 8.56367 0 8.66724V24.8754C0 27.9134 1.05788 30.2781 3.17363 31.9697C5.28938 33.6958 8.30693 34.5589 12.2263 34.5589C12.2898 34.5589 12.3532 34.5587 12.4165 34.5582C12.4797 34.5587 12.5431 34.5589 12.6067 34.5589C16.526 34.5589 19.5436 33.6958 21.6593 31.9697C23.7751 30.2781 24.8329 27.9134 24.8329 24.8754V17.1563C24.4861 17.0527 23.9311 16.9492 23.1681 16.8456C22.4397 16.742 21.6767 16.6903 20.8789 16.6903C20.1159 16.6903 19.4222 16.742 18.7978 16.8456C18.2082 16.9492 17.7053 17.1563 17.2891 17.467C16.8729 17.7777 16.5434 18.192 16.3006 18.7098C16.0925 19.2622 15.9884 19.9699 15.9884 20.8329V24.5647C15.9884 25.6349 15.6762 26.4116 15.0519 26.895C14.4623 27.4128 13.6472 27.6717 12.6067 27.6717Z" fill="black"/>
<defs>
<linearGradient id="paint0_linear_305_3658" x1="143.562" y1="48.2537" x2="174.669" y2="48.2537" gradientUnits="userSpaceOnUse">
<stop offset="0.3191" stop-color="#FEEA00"/>
<stop offset="0.4629" stop-color="#FFE800"/>
<stop offset="0.6031" stop-color="#FFE200"/>
<stop offset="0.7415" stop-color="#FFD600"/>
<stop offset="0.8006" stop-color="#FFD000"/>
</linearGradient>
<linearGradient id="paint1_linear_305_3658" x1="151.339" y1="40.3978" x2="173.558" y2="62.3921" gradientUnits="userSpaceOnUse">
<stop offset="0.00925926" stop-color="#FEEA00"/>
<stop offset="0.1652" stop-color="#FFE500" stop-opacity="0.7002"/>
<stop offset="0.4187" stop-color="#FFD700" stop-opacity="0.2128"/>
<stop offset="0.5294" stop-color="#FFD000" stop-opacity="0"/>
</linearGradient>
<linearGradient id="paint2_linear_305_3658" x1="155.964" y1="54.0685" x2="188.948" y2="54.0685" gradientUnits="userSpaceOnUse">
<stop stop-color="#F18700"/>
<stop offset="0.0589" stop-color="#F28B00"/>
<stop offset="0.1263" stop-color="#F49600"/>
<stop offset="0.1977" stop-color="#F8A900"/>
<stop offset="0.2029" stop-color="#F8AA00"/>
<stop offset="0.2706" stop-color="#F9AD00" stop-opacity="0.9351"/>
<stop offset="0.3253" stop-color="#FAB500" stop-opacity="0.8828"/>
<stop offset="0.3754" stop-color="#FDC100" stop-opacity="0.8348"/>
<stop offset="0.4225" stop-color="#FFD200" stop-opacity="0.7897"/>
<stop offset="0.4639" stop-color="#FFE400" stop-opacity="0.75"/>
<stop offset="0.7003" stop-color="#FEEA00" stop-opacity="0.3"/>
</linearGradient>
<linearGradient id="paint3_linear_305_3658" x1="162.729" y1="52.6532" x2="167.789" y2="55.9325" gradientUnits="userSpaceOnUse">
<stop offset="0.00307953" stop-color="#F18700"/>
<stop offset="0.4919" stop-color="#FEC900" stop-opacity="0"/>
</linearGradient>
<linearGradient id="paint4_linear_305_3658" x1="162.495" y1="52.3535" x2="169.736" y2="57.4796" gradientUnits="userSpaceOnUse">
<stop offset="0.0164"/>
<stop offset="0.479" stop-color="#FEC900" stop-opacity="0"/>
</linearGradient>
<clipPath id="clip0_305_3658">
<rect width="31.1381" height="31.458" fill="white" transform="translate(143.562 32.542)"/>
</clipPath>
</defs>
</svg>
